<?xml version="1.0" standalone="no"?>
<!DOCTYPE svg PUBLIC "-//W3C//DTD SVG 20010904//EN"
 "http://www.w3.org/TR/2001/REC-SVG-20010904/DTD/svg10.dtd">
<svg version="1.0" xmlns="http://www.w3.org/2000/svg"
 width="744.000000pt" height="277.000000pt" viewBox="0 0 744.000000 277.000000"
 preserveAspectRatio="xMidYMid meet">

<g transform="translate(0.000000,277.000000) scale(0.100000,-0.100000)"
fill="#000000" stroke="none">
<path d="M1145 2756 c-60 -27 -99 -91 -93 -154 l3 -34 -365 -213 c-357 -208
-365 -212 -385 -194 -29 26 -89 49 -127 49 -48 0 -112 -36 -143 -80 -85 -122
1 -280 152 -280 47 0 116 29 131 56 7 13 29 4 148 -58 136 -72 139 -75 145
-112 9 -54 48 -89 100 -92 36 -1 47 -7 70 -39 l28 -37 -22 -33 c-12 -18 -47
-72 -77 -119 l-55 -85 -45 -1 c-25 0 -56 -6 -70 -13 -40 -20 -70 -74 -70 -126
0 -128 153 -184 238 -87 l30 34 190 -102 c105 -56 194 -104 197 -108 11 -11
-276 -353 -294 -350 -104 19 -146 7 -181 -51 -55 -90 9 -207 114 -207 68 0
136 65 136 129 0 15 8 21 33 25 84 14 431 67 505 77 96 14 90 17 149 -78 21
-35 66 -108 101 -163 62 -98 62 -100 47 -129 -27 -54 -20 -98 24 -142 32 -32
46 -39 77 -39 96 0 153 95 112 184 -12 28 -19 15 137 261 l60 94 53 1 c58 0
83 10 123 47 l27 25 88 -35 c49 -19 199 -78 334 -131 135 -53 255 -101 268
-106 14 -6 22 -18 22 -34 0 -35 45 -84 85 -92 42 -8 66 0 99 33 55 55 23 156
-54 172 -33 6 -37 11 -71 101 -20 52 -68 172 -106 267 -70 170 -71 172 -51
190 87 79 49 230 -65 258 -16 4 -27 14 -27 24 0 14 -36 468 -65 828 l-6 72 34
14 c69 29 114 114 103 192 -22 144 -195 206 -299 107 -39 -36 -57 -74 -57
-116 0 -37 3 -35 -90 -60 -30 -8 -195 -53 -367 -100 -171 -47 -314 -86 -317
-86 -3 0 -6 5 -6 12 0 7 -29 106 -65 220 l-66 208 17 47 c15 44 15 51 1 85
-18 44 -68 78 -113 78 -36 0 -95 -36 -109 -67 -7 -17 -19 -22 -63 -25 -50 -3
-55 -1 -68 24 -32 61 -126 94 -189 64z m323 -180 c16 -35 55 -58 104 -60 l42
-2 62 -195 c34 -107 65 -201 68 -210 6 -14 -12 -22 -106 -48 -62 -17 -118 -31
-124 -31 -7 0 -28 37 -47 83 -19 45 -65 148 -101 229 l-66 147 25 37 c14 20
25 45 25 55 0 16 8 19 53 19 47 0 55 -3 65 -24z m-371 -78 c-3 -7 -72 -130
-154 -273 -95 -166 -155 -259 -164 -258 -145 21 -361 56 -384 62 -24 6 -31 13
-33 37 -3 30 1 33 272 188 152 86 313 179 358 206 83 50 115 61 105 38z m12
-218 c-21 -102 -38 -190 -38 -196 -1 -6 -19 -14 -41 -17 -47 -6 -101 -44 -127
-87 -9 -17 -23 -30 -30 -30 -7 0 -13 2 -13 4 0 2 38 71 83 152 46 82 110 198
141 257 32 60 59 107 61 105 1 -2 -15 -86 -36 -188z m171 100 c20 -47 65 -148
99 -224 34 -77 58 -143 54 -147 -5 -4 -44 -16 -89 -28 -44 -11 -87 -23 -95
-26 -9 -3 -21 7 -33 30 -11 20 -34 45 -53 56 -18 11 -33 23 -33 27 0 11 71
376 75 390 11 32 39 2 75 -78z m1310 -124 c0 -4 -96 -75 -194 -143 -17 -12
-132 -96 -256 -187 l-225 -164 -42 131 c-24 73 -43 137 -43 143 0 12 68 33
440 134 124 34 243 68 265 75 45 15 55 17 55 11z m60 -61 c7 -8 29 -20 49 -26
l37 -11 39 -459 c42 -501 42 -516 -13 -454 -15 17 -80 91 -145 165 -77 86
-117 139 -113 149 2 9 12 36 21 60 47 130 -91 273 -222 230 -72 -23 -110 -66
-136 -149 -7 -22 -206 -58 -218 -39 -21 33 -21 33 406 344 76 55 168 123 204
152 36 28 69 52 72 52 4 1 12 -6 19 -14z m-845 -287 c21 -68 40 -128 42 -134
3 -7 -17 -1 -44 13 -41 21 -59 24 -124 21 l-77 -3 -35 82 -34 81 46 12 c25 7
73 20 106 30 33 10 65 19 71 19 6 1 28 -54 49 -121z m-1300 38 c50 -8 127 -20
173 -26 45 -7 82 -15 82 -19 -1 -16 -29 -41 -46 -41 -10 0 -32 -8 -48 -18
l-30 -18 -125 64 c-134 69 -162 87 -121 78 14 -3 66 -12 115 -20z m1005 -88
l38 -86 -34 -33 -33 -32 -60 32 c-178 95 -193 107 -173 139 8 12 197 72 216
68 5 -1 26 -41 46 -88z m-632 10 c3 -15 -73 -56 -84 -45 -4 3 3 22 15 41 18
29 26 34 44 27 12 -5 23 -15 25 -23z m40 -98 c11 -17 7 -28 -25 -80 -21 -33
-41 -59 -44 -60 -4 0 -14 12 -24 26 -26 40 -10 94 35 116 43 22 43 22 58 -2z
m470 -91 c62 -34 63 -34 57 -69 -4 -19 -8 -36 -10 -38 -4 -5 -159 157 -164
171 -2 6 9 1 25 -10 16 -11 57 -35 92 -54z m-44 -114 l166 -175 -97 -120 c-54
-66 -100 -120 -104 -120 -3 0 -13 30 -22 68 -10 37 -46 165 -81 284 -60 206
-65 238 -35 238 4 0 82 -79 173 -175z m-248 100 c3 -16 32 -122 64 -235 95
-336 99 -350 92 -350 -4 1 -43 51 -87 112 -44 61 -122 167 -173 237 -52 69
-96 131 -99 138 -2 6 16 42 41 80 l46 69 55 -10 c49 -9 55 -13 61 -41z m1088
-68 c7 -18 32 -49 56 -69 l42 -36 -21 -169 c-43 -333 -56 -416 -68 -420 -8 -3
-26 42 -52 124 -22 70 -69 222 -105 338 -36 115 -63 211 -61 213 2 3 46 15 97
27 51 13 94 23 95 24 2 1 9 -14 17 -32z m-1282 -155 c26 -37 71 -99 100 -139
229 -311 212 -283 190 -305 -20 -20 -20 -20 -235 92 -197 104 -216 116 -221
143 -4 17 -12 38 -20 46 -11 14 -4 31 57 124 39 59 73 107 76 107 3 0 27 -31
53 -68z m1694 -100 c136 -160 140 -167 127 -192 -7 -14 -13 -44 -13 -66 l0
-42 -112 -69 c-62 -39 -141 -87 -175 -107 l-62 -38 -43 33 c-24 19 -45 35 -47
36 -4 2 67 561 74 581 2 6 17 12 32 12 15 0 35 5 43 10 8 5 20 10 25 9 6 0 73
-75 151 -167z m-646 124 c0 -15 38 -137 126 -406 50 -154 53 -166 36 -178 -15
-12 -24 -6 -82 56 -36 39 -129 138 -208 220 l-142 150 47 7 c83 12 156 64 188
134 17 38 35 46 35 17z m-454 -313 l-72 -178 -34 0 c-32 0 -34 3 -45 46 l-12
46 49 59 c27 32 77 94 110 136 33 43 64 76 68 73 4 -3 -24 -85 -64 -182z m445
-217 l107 -111 -15 -30 c-9 -16 -17 -31 -18 -33 -2 -2 -31 2 -66 7 -35 6 -127
20 -204 31 -201 30 -195 28 -195 54 0 23 -23 63 -48 83 -17 14 -12 30 65 226
l46 119 111 -118 c61 -65 159 -168 217 -228z m905 4 c18 0 36 -5 40 -11 3 -6
53 -126 110 -267 64 -158 100 -260 94 -266 -5 -5 -143 44 -359 130 l-350 139
-1 51 0 51 182 110 182 110 34 -24 c19 -13 50 -23 68 -23z m-1578 8 c19 -19
14 -30 -8 -18 -11 6 -20 15 -20 20 0 14 14 12 28 -2z m-43 -70 c22 -10 25 -17
25 -59 l0 -48 -97 -57 c-54 -31 -115 -67 -136 -81 -22 -13 -41 -23 -43 -20 -4
4 214 277 222 277 1 0 15 -5 29 -12z m555 -142 c118 -18 208 -36 200 -39 -8
-3 -106 -18 -218 -34 -220 -31 -212 -32 -241 24 -9 17 -7 28 7 52 9 17 22 31
27 30 6 0 107 -15 225 -33z m-467 -38 c24 -17 46 -23 89 -23 50 0 58 -3 72
-26 l16 -27 -83 -11 c-45 -7 -153 -23 -239 -37 -87 -13 -161 -24 -165 -24 -13
0 11 17 72 50 33 19 92 52 130 76 39 23 72 43 73 43 2 1 18 -9 35 -21z m749
-92 l27 -33 -71 -114 c-39 -63 -83 -134 -99 -158 -16 -25 -29 -48 -29 -53 0
-4 -20 -8 -44 -8 l-44 0 -105 168 -106 167 82 13 c45 7 134 21 197 31 162 26
161 26 192 -13z"/>
<path d="M6173 1977 c-55 -82 -187 -276 -361 -529 l-142 -208 0 -100 0 -100
258 -2 257 -3 3 -122 3 -123 109 0 110 0 0 125 0 125 80 0 80 0 0 100 0 100
-80 0 -80 0 0 400 0 400 -97 0 -98 0 -42 -63z m17 -517 c0 -164 -3 -212 -13
-216 -7 -2 -75 -3 -150 -2 l-137 3 142 212 c79 117 146 213 151 213 4 0 7 -95
7 -210z"/>
<path d="M3470 1409 l0 -620 328 3 327 4 69 27 c37 15 90 43 116 62 63 46 132
150 167 250 27 77 28 87 28 275 0 187 -1 198 -28 273 -34 97 -79 168 -144 229
-114 105 -173 118 -565 118 l-298 0 0 -621z m511 412 c139 -15 204 -61 250
-178 21 -52 23 -74 24 -228 0 -152 -2 -178 -23 -242 -27 -82 -64 -126 -132
-157 -38 -17 -71 -21 -212 -24 l-168 -4 0 421 0 421 88 0 c48 0 126 -4 173 -9z"/>
<path d="M7188 1553 c-3 -435 -5 -481 -21 -510 -49 -91 -206 -88 -260 4 -10
18 -21 57 -24 88 -7 64 -1 62 -146 44 l-89 -12 4 -72 c8 -117 66 -221 156
-277 101 -63 323 -65 441 -4 102 53 165 157 181 298 6 46 10 271 10 501 l0
417 -125 0 -124 0 -3 -477z"/>
<path d="M4700 1405 l0 -615 435 0 435 0 0 100 0 100 -312 2 -313 3 -3 513 -2
512 -120 0 -120 0 0 -615z"/>
</g>
</svg>
